<svg width="33" height="33" viewBox="0 0 33 33" fill="none" xmlns="http://www.w3.org/2000/svg">
<path d="M33 33V0H0V33H33ZM19.549 12.0509C19.0514 12.0509 18.5389 12.1659 18.0089 12.3909C19.0314 9.04568 20.9841 7.42056 23.8643 7.51307C25.9995 7.57557 27.007 8.96068 26.8845 11.6684C26.792 13.691 25.3794 16.4637 22.6442 19.979C19.8165 23.6518 17.4263 25.4894 15.4712 25.4894C14.2586 25.4894 13.2335 24.3718 12.3959 22.1342C11.8359 20.084 11.2784 18.0314 10.7183 15.9812C10.0958 13.746 9.42821 12.626 8.71566 12.626C8.56065 12.626 8.01561 12.9535 7.08304 13.606L6.10546 12.3459C7.13054 11.4459 8.14312 10.5433 9.13819 9.64073C10.5058 8.45814 11.5359 7.83559 12.2184 7.77309C13.836 7.61808 14.8311 8.72316 15.2062 11.0908C15.6112 13.646 15.8887 15.2337 16.0462 15.8562C16.5138 17.9764 17.0263 19.0339 17.5863 19.0339C18.0214 19.0339 18.6739 18.3464 19.5465 16.9713C20.4165 15.5962 20.8841 14.5511 20.9466 13.8335C21.0716 12.646 20.6066 12.0509 19.549 12.0509Z" fill="#111111"/>
</svg>
