<svg width="33" height="33" viewBox="0 0 33 33" fill="none" xmlns="http://www.w3.org/2000/svg">
<path d="M33 33V0H0V33H33ZM18.1389 13.6235C18.1389 13.646 18.1414 13.671 18.1439 13.706C18.1914 13.706 18.2339 13.706 18.2764 13.706C19.399 13.706 20.5216 13.706 21.6416 13.706C21.7891 13.706 21.7917 13.706 21.7716 13.846C21.6916 14.4586 21.6091 15.0711 21.5316 15.6837C21.4566 16.2612 21.3866 16.8388 21.3166 17.4163C20.3015 17.4163 19.284 17.4163 18.2689 17.4163C18.2289 17.4163 18.1889 17.4163 18.1364 17.4163C18.1364 17.4713 18.1364 17.5188 18.1364 17.5638C18.1364 20.6741 18.1364 23.7868 18.1364 26.897H14.2811C14.2836 26.847 14.2861 26.7945 14.2861 26.7445C14.2861 23.6743 14.2861 20.6041 14.2861 17.5338C14.2861 17.4963 14.2861 17.4613 14.2861 17.4163C14.2336 17.4163 14.1936 17.4163 14.1536 17.4163C13.1735 17.4163 12.1959 17.4163 11.2158 17.4163C11.0808 17.4163 11.0783 17.4163 11.0783 17.2863C11.0783 16.1362 11.0808 14.9886 11.0758 13.8385C11.0758 13.7335 11.1083 13.706 11.2083 13.7085C12.1884 13.711 13.166 13.711 14.1461 13.711C14.1861 13.711 14.2261 13.711 14.2836 13.711C14.2836 13.671 14.2836 13.636 14.2836 13.601C14.2861 12.646 14.2786 11.6909 14.2911 10.7333C14.3111 9.44321 14.7136 8.22312 15.7412 7.17554C16.7313 6.43799 17.8163 6.09296 18.9564 6.11046C19.759 6.12296 20.5591 6.15797 21.3616 6.18797C21.5466 6.19547 21.7316 6.23297 21.9192 6.22797C21.9117 7.24555 21.9267 8.26313 21.9042 9.2807C21.9292 9.52072 21.9367 9.58323 21.7917 9.58323C21.1841 9.57823 20.5741 9.57072 19.9665 9.58573C19.689 9.59323 19.409 9.62323 19.139 9.68073C18.6189 9.79574 18.3089 10.1383 18.2064 10.6583C18.1639 10.8658 18.1414 11.0808 18.1389 11.2934C18.1364 12.0659 18.1389 12.846 18.1389 13.6235Z" fill="#111111"/>
</svg>
