<svg viewBox="0 0 16 20" xmlns="http://www.w3.org/2000/svg">
    <path d="M14.4021 7.72549C14.4021 6.99869 13.8864 6.39159 13.2058 6.25478C13.0325 7.04999 12.7662 7.8281 12.4491 8.53353C12.2547 8.96534 11.8996 9.20904 11.4684 9.20904C11.0415 9.20904 10.6061 8.96107 10.3651 8.57201C10.1664 8.25991 10.1115 7.89223 10.2087 7.54165L10.2045 7.5331L10.2299 7.46042C10.2425 7.41767 10.2594 7.37919 10.2764 7.34071L10.2806 7.32789C10.3355 7.19108 10.3863 7.05427 10.4328 6.92173C10.5131 6.68231 10.5849 6.45572 10.6441 6.22913H5.27556C5.31361 6.37876 5.35165 6.54123 5.39815 6.70369C5.47424 6.98159 5.56301 7.28513 5.67715 7.57586C5.78705 7.84948 5.77015 8.16158 5.62219 8.4523C5.45733 8.78578 5.14452 9.04657 4.81057 9.14063C4.70066 9.17056 4.59075 9.18338 4.48507 9.18338C3.97781 9.18338 3.5255 8.84136 3.30991 8.28556C3.05627 7.64854 2.86605 6.96021 2.74346 6.25905C2.08402 6.41297 1.58943 7.00724 1.58943 7.71694L0 18.1231C0 19.1577 0.828534 20 1.85575 20H14.14C15.1672 20 16 19.1577 16 18.1231L14.4021 7.72549Z"/>
    <path d="M11.5869 1.19709C10.7668 0.427534 9.52397 0 8.09095 0C7.13137 0 6.15911 0.196665 5.35594 0.555794C3.69042 1.2997 3.16202 3.24926 3.2212 4.82685C3.2677 5.93417 3.50442 7.08423 3.89333 8.06328C3.93983 8.17872 4.1216 8.5635 4.49782 8.5635C4.54854 8.5635 4.60773 8.55495 4.66268 8.53785C4.82754 8.49509 4.9924 8.34973 5.08117 8.17444C5.12345 8.08466 5.16572 7.94785 5.11499 7.81104C4.98817 7.49039 4.88672 7.15691 4.81063 6.87902C4.6035 6.13938 4.49782 5.52373 4.45977 4.87388C4.35832 2.83882 5.16994 1.68876 6.95806 1.35528C7.2751 1.29543 7.62173 1.2655 7.97681 1.2655C8.8138 1.2655 9.59584 1.42796 10.175 1.72296C10.3779 1.82557 10.5385 1.93673 10.6146 2.00086C10.6949 2.06926 10.771 2.14194 10.8386 2.21035C10.8386 2.21462 10.8555 2.23173 10.8767 2.2531C10.8936 2.27448 10.9232 2.30868 10.9401 2.32578L10.9485 2.32151C10.9612 2.34716 10.9739 2.35999 10.9824 2.36854C11.0711 2.48825 11.1557 2.62933 11.2529 2.81317C11.2571 2.82172 11.2783 2.87303 11.2952 2.92005C11.2994 2.92433 11.2994 2.92861 11.3036 2.93288H11.3079C11.3163 2.94998 11.3205 2.97136 11.329 2.99274C11.3332 3.00129 11.3332 3.00556 11.3374 3.00984C11.3713 3.10817 11.3966 3.2065 11.422 3.29201C11.5742 3.83925 11.553 4.8183 11.4812 5.28432C11.3924 5.86149 11.2402 6.46431 11.012 7.12271C10.9739 7.23814 10.9316 7.35358 10.8851 7.47329C10.8725 7.52459 10.8513 7.58872 10.8133 7.64858C10.7245 7.89655 10.7964 8.10176 10.8767 8.23002C11.012 8.43951 11.2487 8.5806 11.46 8.5806C11.646 8.5806 11.7855 8.47799 11.8743 8.27705C12.9184 5.96837 13.3876 2.8944 11.5869 1.19709Z"/>
</svg>
