<svg width="33" height="33" viewBox="0 0 33 33" fill="none" xmlns="http://www.w3.org/2000/svg">
<path d="M17.0729 19.9856C19.0084 19.6715 20.3227 17.8479 20.0086 15.9124C19.6945 13.9769 17.8708 12.6626 15.9354 12.9767C13.9999 13.2908 12.6856 15.1144 12.9997 17.0499C13.3138 18.9853 15.1374 20.2997 17.0729 19.9856Z" fill="#111111"/>
<path d="M12.386 25.1544H20.6166C21.7367 25.1544 22.7918 24.7143 23.5918 23.9143C24.3919 23.1142 24.8319 22.0591 24.8319 20.939V12.1709C24.8319 11.0508 24.3919 9.99572 23.5918 9.19566C22.7918 8.3956 21.7367 7.95557 20.6166 7.95557H12.386C11.2659 7.95557 10.2108 8.3956 9.41075 9.19566C8.61069 9.99572 8.17065 11.0508 8.17065 12.1709V20.9416C8.17065 22.0616 8.61069 23.1167 9.41075 23.9168C10.2108 24.7143 11.2659 25.1544 12.386 25.1544ZM22.0367 9.6907C22.7468 9.6907 23.3193 10.2657 23.3193 10.9733C23.3193 11.6808 22.7443 12.2559 22.0367 12.2559C21.3292 12.2559 20.7541 11.6808 20.7541 10.9733C20.7541 10.2657 21.3292 9.6907 22.0367 9.6907ZM16.5313 11.0583C19.524 11.0583 21.9517 13.486 21.9517 16.4787C21.9517 19.4714 19.524 21.8991 16.5313 21.8991C13.5386 21.8991 11.1109 19.4714 11.1109 16.4787C11.1109 13.4835 13.5386 11.0583 16.5313 11.0583Z" fill="#111111"/>
<path d="M33 33V0H0V33H33ZM6.658 12.1709C6.658 9.02068 9.2357 6.44549 12.3834 6.44549H20.6141C23.7643 6.44549 26.3395 9.02318 26.3395 12.1709V20.9416C26.3395 24.0918 23.7618 26.667 20.6141 26.667H12.3859C9.2357 26.667 6.6605 24.0893 6.6605 20.9416V12.1709H6.658Z" fill="#111111"/>
</svg>
