<svg width="33" height="33" viewBox="0 0 33 33" fill="none" xmlns="http://www.w3.org/2000/svg">
<path d="M14.4636 19.6792L19.7065 16.5015L14.4636 13.5112V19.6792Z" fill="#111111"/>
<path d="M33 33V0H0V33H33ZM26.887 15.7437C26.8945 16.2487 26.8945 16.7538 26.887 17.2563C26.8545 19.5965 26.642 21.9492 25.6819 22.8167C25.3119 23.1518 24.9594 23.3618 23.5543 23.4943C21.7941 23.6568 19.4115 23.6818 17.6113 23.6843C16.8688 23.6843 16.1237 23.6843 15.3812 23.6843C13.581 23.6818 11.1958 23.6593 9.43821 23.4943C8.03311 23.3643 7.68058 23.1543 7.31055 22.8167C6.34298 21.9392 6.13546 19.554 6.10546 17.1938C6.10046 16.7513 6.10046 16.3062 6.10546 15.8637C6.13046 13.4835 6.33548 11.0658 7.31055 10.1808C7.68058 9.84575 8.03311 9.63573 9.43821 9.50322C11.1983 9.34071 13.581 9.31571 15.3812 9.3132C16.1237 9.3132 16.8688 9.3132 17.6113 9.3132C19.4115 9.31571 21.7941 9.33821 23.5543 9.50322C24.9594 9.63323 25.3119 9.84325 25.6819 10.1808C26.642 11.0508 26.8545 13.4035 26.887 15.7437Z" fill="#111111"/>
</svg>
