<svg xmlns="http://www.w3.org/2000/svg" viewBox="0 0 89.204 20">
  <path d="M11.649,13.379,7.543,0H0V.738H2.907V18.824H0v.738H6.667v-.738H3.829V1.223H3.9L9.712,19.562h1.015L16.563,1.223h.092v17.6H13.772v.738H23.3v-.738H20.415V.738H23.3V0h-7.4Z"></path>
  <path d="M118.864.738H121.7V13.679c0,3.23-1.453,5.4-4.89,5.4-5.306,0-4.867-3.552-4.867-7.612V.738h2.907V0H105.3V.738h2.907v11.6c0,3.276.554,5.19,1.822,6.113A9,9,0,0,0,115.219,20c2.63,0,4.475-.438,5.675-1.522s1.753-2.514,1.753-5.444V.738h2.93V0h-6.713Z" transform="translate(-81.009)"></path>
  <path d="M198.3,0V.738h2.907V18.824H198.3v.738h9.55v-.738h-2.907V9.873c3.16-.092,4.175.623,4.452,3.875h.83V5.559h-.83c-.138,3.137-1.638,3.576-4.452,3.576V.738h3.183a8.956,8.956,0,0,1,3.022.369c1.938.877,2.376,2.93,2.791,4.867h.784L214.517,0Z" transform="translate(-152.556)"></path>
  <path d="M289.928,2.9c-1.707.115-3.414.323-5.121.323H283.1v.738h1.638c1.753,0,2.03-.069,2.03,1.2V21.055h-3.483v.738h10.035v-.738h-3.391Z" transform="translate(-217.794 -2.231)"></path>
  <path d="M338.121,2.9c-3.483,0-6.321,4.913-6.321,9.5,0,6.621,3.6,9.8,6.321,9.8s6.344-3.183,6.344-9.8C344.487,7.813,341.6,2.9,338.121,2.9Zm0,18.593c-2.953,0-2.745-3.9-2.745-5.952V9.175c0-4.752,1.453-5.629,2.745-5.629s2.791.877,2.791,5.629v6.39C340.912,17.594,341.073,21.493,338.121,21.493Z" transform="translate(-255.26 -2.231)"></path>
</svg>